<?xml version="1.0" encoding="UTF-8" standalone="no"?>
<!-- Generator: Adobe Illustrator 19.1.0, SVG Export Plug-In . SVG Version: 6.00 Build 0)  -->

<svg
   xmlns:dc="http://purl.org/dc/elements/1.1/"
   xmlns:cc="http://creativecommons.org/ns#"
   xmlns:rdf="http://www.w3.org/1999/02/22-rdf-syntax-ns#"
   xmlns:svg="http://www.w3.org/2000/svg"
   xmlns="http://www.w3.org/2000/svg"
   xmlns:sodipodi="http://sodipodi.sourceforge.net/DTD/sodipodi-0.dtd"
   xmlns:inkscape="http://www.inkscape.org/namespaces/inkscape"
   version="1.1"
   id="Capa_1"
   x="0px"
   y="0px"
   viewBox="0 0 478.703 478.703"
   style="enable-background:new 0 0 478.703 478.703;"
   xml:space="preserve"
   inkscape:version="0.91 r13725"
   sodipodi:docname="settings2.svg"><metadata
     id="metadata45"><rdf:RDF><cc:Work
         rdf:about=""><dc:format>image/svg+xml</dc:format><dc:type
           rdf:resource="http://purl.org/dc/dcmitype/StillImage" /><dc:title></dc:title></cc:Work></rdf:RDF></metadata><defs
     id="defs43" /><sodipodi:namedview
     pagecolor="#ffffff"
     bordercolor="#666666"
     borderopacity="1"
     objecttolerance="10"
     gridtolerance="10"
     guidetolerance="10"
     inkscape:pageopacity="0"
     inkscape:pageshadow="2"
     inkscape:window-width="1920"
     inkscape:window-height="1027"
     id="namedview41"
     showgrid="false"
     inkscape:zoom="1.3944111"
     inkscape:cx="413.23432"
     inkscape:cy="229.6927"
     inkscape:window-x="1912"
     inkscape:window-y="-8"
     inkscape:window-maximized="1"
     inkscape:current-layer="Capa_1" /><g
     id="g3"><g
       id="g5"><path
         sodipodi:type="inkscape:offset"
         inkscape:radius="-0.65780592"
         inkscape:original="M 221.96289 13.728516 C 213.75131 13.518008 203.89814 17.061146 202.21484 26.044922 C 197.39036 40.230927 201.51976 58.388781 189.56055 69.566406 C 180.3917 75.236506 169.61239 77.5234 160.18945 82.751953 C 152.6547 86.516681 143.4175 86.115717 136.85742 80.546875 C 125.91539 73.811715 116.85248 61.094893 102.87109 61.273438 C 89.249407 65.318658 83.17089 79.75906 72.09375 87.539062 C 65.210062 93.480136 56.27824 102.76351 61.197266 112.53125 C 67.243167 127.34962 84.446415 137.2457 84.320312 154.50977 C 82.189865 164.38585 75.197319 172.43998 73.533203 182.50391 C 70.577594 191.72868 62.704279 199.64854 52.609375 199.92773 C 40.75312 202.45408 25.860246 200.44005 16.933594 210.31641 C 10.125681 223.65261 16.418583 238.87462 13.619141 252.97656 C 12.958385 262.02177 15.465676 274.11144 25.693359 276.42578 C 40.093303 281.27319 57.817774 277.47246 69.646484 288.8418 C 75.464894 298.25733 77.169694 309.55868 83.050781 318.97266 C 87.006667 326.82417 85.659404 336.32295 79.923828 342.91992 C 73.240144 353.47334 60.591687 362.57779 61.527344 376.32617 C 66.29437 390.32934 81.290003 396.5891 89.265625 408.36914 C 94.971708 414.98038 104.64275 422.29471 113.46289 417.05078 C 127.71083 410.64059 137.6485 393.94477 154.62695 394.33984 C 164.5699 396.3961 172.48704 403.32733 182.45312 405.0918 C 191.87495 408.24506 199.00853 417.04014 199.05859 427.12695 C 201.30546 438.85731 199.54811 453.34644 209.47852 461.93555 C 222.74501 468.42224 237.76492 462.43776 251.75781 465.00781 C 260.48032 465.68466 272.33748 463.76013 275.10547 453.87695 C 280.63708 439.53016 275.87187 420.83609 288.1543 409.41602 C 297.1034 403.71001 307.95074 402.33265 316.85742 396.65625 C 325.1741 392.72943 335.58951 393.28798 342.49609 399.75 C 352.88603 406.46263 362.29651 418.86848 375.73047 417.81445 C 388.75607 413.66875 394.59538 399.81763 405.31641 392.32227 C 412.38918 386.1983 421.52603 376.63124 416.65039 366.59375 C 410.8117 352.1487 394.11182 342.61247 394.03711 325.89648 C 396.2695 314.5427 403.34513 304.89555 406.20312 293.7168 C 409.60521 285.08307 418.26969 279.98305 427.29297 279.49805 C 438.76439 277.32348 453.0405 279.03628 461.68359 269.61328 C 468.68084 256.29791 462.27572 241.11931 464.94531 226.94922 C 465.72676 218.38394 464.17016 206.4792 454.33008 203.77148 C 439.90639 198.06816 421.35612 202.787 409.56641 190.89453 C 403.97201 182.3337 403.07585 171.64415 397.39258 163.08008 C 393.14651 154.68019 392.81527 143.84133 399.61914 136.64844 C 406.36663 126.27005 418.64305 116.8188 418.11914 103.45117 C 413.5709 89.003225 398.11574 82.70474 390.03125 70.632812 C 384.24733 63.951552 374.09399 57.125004 365.43164 62.625 C 352.05357 69.130445 342.52887 83.975555 326.58203 84.871094 C 314.75582 82.542801 305.12126 74.99705 293.41406 72.285156 C 285.35558 69.556552 279.95922 62.113315 279.10352 53.757812 C 276.17667 41.33905 278.80635 25.342425 267.90234 16.505859 C 256.67038 10.956243 243.94957 15.963371 232.0918 13.804688 C 228.71656 13.703418 225.33877 13.711426 221.96289 13.728516 z "
         style="fill:none;stroke:#000000;stroke-width:27;stroke-linejoin:round;stroke-miterlimit:4;stroke-dasharray:none;stroke-opacity:1"
         id="path4201"
         d="m 221.94531,14.386719 c -4.00453,-0.102659 -8.42276,0.719363 -11.99414,2.632812 -3.57138,1.913449 -6.2881,4.867568 -7.08984,9.146485 a 0.6578717,0.6578717 0 0 1 -0.0234,0.08984 c -2.36627,6.957842 -2.55022,15.00548 -3.62305,22.767579 -1.07282,7.762098 -3.06806,15.2875 -9.20507,21.023437 a 0.6578717,0.6578717 0 0 1 -0.10352,0.07813 c -9.29771,5.749788 -20.09044,8.0364 -29.39844,13.201172 a 0.6578717,0.6578717 0 0 1 -0.0234,0.01367 c -7.71444,3.854507 -17.19722,3.461371 -23.97266,-2.232422 -5.55936,-3.42196 -10.56755,-8.298841 -15.90039,-12.261719 -5.30777,-3.944247 -10.89407,-6.961397 -17.64063,-6.904297 -6.583331,1.983981 -11.393326,6.467564 -15.955075,11.50586 -4.56894,5.046237 -8.869565,10.624624 -14.492187,14.589843 -3.420083,2.951756 -7.32312,6.72444 -9.734376,10.892579 -2.411255,4.168142 -3.353826,8.640392 -1.003906,13.306642 a 0.6578717,0.6578717 0 0 1 0.02148,0.0469 c 2.959859,7.25455 8.71826,13.39811 13.785156,19.91602 5.066896,6.51791 9.451373,13.46302 9.386719,22.31445 a 0.6578717,0.6578717 0 0 1 -0.01563,0.13477 c -2.177465,10.09404 -9.156305,18.13584 -10.78125,27.96289 a 0.6578717,0.6578717 0 0 1 -0.02148,0.0937 c -3.013919,9.40676 -11.044339,17.51655 -21.414062,17.86523 -0.01875,0.004 -0.03983,0.004 -0.05859,0.008 -0.02079,6.4e-4 -0.03974,0.007 -0.06055,0.008 -5.988208,1.25969 -12.629495,1.40022 -18.845703,2.42968 -6.227079,1.03127 -11.975172,2.94708 -16.294922,7.68555 -3.278891,6.48088 -3.425803,13.45082 -3.05664,20.625 0.370764,7.20532 1.260837,14.59165 -0.166016,21.7793 l 0.01172,-0.0801 c -0.324422,4.44107 0.138285,9.64024 1.90625,13.94922 1.767964,4.30898 4.771605,7.70524 9.65625,8.81055 a 0.6578717,0.6578717 0 0 1 0.06445,0.0176 c 7.073364,2.38109 15.065038,2.65083 22.822265,3.73438 7.757228,1.08355 15.317848,3.00628 21.376953,8.83008 a 0.6578717,0.6578717 0 0 1 0.105469,0.1289 c 5.911944,9.56689 7.61633,20.86712 13.402344,30.12891 a 0.6578717,0.6578717 0 0 1 0.0293,0.0508 c 4.063513,8.06513 2.6931,17.80448 -3.158203,24.5957 -3.396449,5.36294 -8.238951,10.28126 -12.080078,15.54102 -3.823942,5.23623 -6.635198,10.75854 -6.212891,17.38281 2.336718,6.78584 7.147878,11.74797 12.445312,16.4961 5.301298,4.75159 11.068298,9.27591 15.13086,15.24804 2.811337,3.2573 6.606918,6.68185 10.712888,8.6211 4.10597,1.93924 8.44658,2.42512 12.65039,-0.0742 a 0.6578717,0.6578717 0 0 1 0.0664,-0.0352 c 6.98128,-3.1409 13.00009,-8.87299 19.42578,-13.82812 6.42569,-4.95513 13.31579,-9.14403 22.02344,-8.94141 a 0.6578717,0.6578717 0 0 1 0.11719,0.0137 c 10.16222,2.10161 18.07482,9.02471 27.80859,10.74805 a 0.6578717,0.6578717 0 0 1 0.0937,0.0254 c 9.63846,3.22576 16.93518,12.19134 17.04297,22.53516 0.001,0.007 6.4e-4,0.0146 0.002,0.0215 1.13514,5.93998 1.25884,12.48514 2.32813,18.57031 1.06552,6.06379 3.05082,11.62323 7.81445,15.7793 6.45043,3.127 13.35976,3.26922 20.46289,2.9082 7.13282,-0.36252 14.43765,-1.23084 21.56445,0.0781 l -0.0684,-0.01 c 4.29039,0.33293 9.35745,0.0169 13.62696,-1.5664 4.2695,-1.58331 7.71591,-4.36856 9.03711,-9.08594 a 0.6578717,0.6578717 0 0 1 0.0195,-0.0586 c 2.70849,-7.02475 2.91134,-15.23506 3.95312,-23.17773 1.04179,-7.94266 2.95835,-15.66849 9.26172,-21.5293 a 0.6578717,0.6578717 0 0 1 0.0937,-0.0723 c 9.11182,-5.80976 19.95991,-7.18754 28.70313,-12.75977 a 0.6578717,0.6578717 0 0 1 0.0723,-0.041 c 8.49558,-4.01129 19.14383,-3.46131 26.27735,3.13672 5.27408,3.40742 10.22446,8.19345 15.5,11.96289 5.25474,3.75458 10.78071,6.47697 17.25195,5.99414 6.29732,-2.02858 10.90517,-6.39645 15.29297,-11.26953 4.39148,-4.87719 8.5448,-10.23841 13.98828,-14.06055 3.5142,-3.04278 7.51528,-6.93092 10.00781,-11.22852 2.49253,-4.29759 3.49544,-8.91524 1.16406,-13.71484 a 0.6578717,0.6578717 0 0 1 -0.0176,-0.041 c -2.85654,-7.06713 -8.43765,-13.02655 -13.37696,-19.33789 -4.93931,-6.31134 -9.24682,-13.02507 -9.28515,-21.60156 a 0.6578717,0.6578717 0 0 1 0.0137,-0.13086 c 2.26954,-11.54275 9.35788,-21.20053 12.17383,-32.21484 a 0.6578717,0.6578717 0 0 1 0.0254,-0.0781 c 3.49816,-8.87754 12.36228,-14.09943 21.57812,-14.625 5.81582,-1.10247 12.25294,-1.21627 18.26953,-2.22656 5.98783,-1.00546 11.51614,-2.88376 15.69532,-7.40039 3.37136,-6.47051 3.53603,-13.41969 3.14648,-20.58789 -0.39008,-7.17797 -1.33405,-14.54612 0.01,-21.74805 0.38462,-4.21582 0.18418,-9.25783 -1.29102,-13.50976 -1.4752,-4.25193 -4.15292,-7.68187 -8.84375,-8.97266 a 0.6578717,0.6578717 0 0 1 -0.0684,-0.0234 c -7.06448,-2.79339 -15.25258,-3.05072 -23.21094,-4.07617 -7.95836,-1.02545 -15.73042,-2.84959 -21.77734,-8.94922 a 0.6578717,0.6578717 0 0 1 -0.084,-0.10351 c -5.71397,-8.74381 -6.61043,-19.43006 -12.17187,-27.81055 a 0.6578717,0.6578717 0 0 1 -0.0391,-0.0664 c -4.32569,-8.55738 -4.68928,-19.64788 2.26367,-27.08789 3.42338,-5.26553 8.18439,-10.22454 11.99414,-15.5039 3.79272,-5.25578 6.61777,-10.78493 6.39258,-17.22461 -2.23197,-6.998134 -7.09829,-12.072564 -12.49414,-16.919925 -5.40002,-4.851101 -11.30895,-9.458766 -15.42774,-15.578125 -2.83985,-3.280441 -6.76799,-6.598382 -10.98047,-8.396484 -4.21247,-1.798103 -8.63855,-2.107977 -12.76757,0.513672 a 0.6578717,0.6578717 0 0 1 -0.0664,0.03711 c -6.56728,3.193516 -12.26653,8.493519 -18.34766,13.15625 -6.08112,4.66273 -12.58269,8.695529 -20.75195,9.154297 a 0.6578717,0.6578717 0 0 1 -0.16406,-0.01172 c -12.02407,-2.367247 -21.6663,-9.920582 -33.18946,-12.589844 a 0.6578717,0.6578717 0 0 1 -0.0625,-0.01758 c -8.29069,-2.807231 -13.83214,-10.439582 -14.74023,-19 -1.48798,-6.313576 -1.55666,-13.427347 -2.61719,-20.015625 -1.05684,-6.565434 -3.07034,-12.549329 -8.31054,-16.826172 -5.43574,-2.660734 -11.263,-2.810882 -17.27149,-2.52539 -6.00384,0.285271 -12.16454,0.999368 -18.1914,-0.07813 -3.36106,-0.100845 -6.73077,-0.09326 -10.10547,-0.07617 a 0.6578717,0.6578717 0 0 1 -0.0215,0 z" /><path
         style="fill:none;stroke:#000000;stroke-width:27;stroke-miterlimit:4;stroke-dasharray:none;stroke-opacity:1"
         d="m 239.09766,149.86523 c -47.67293,-0.89567 -91.30043,42.82062 -89.13477,90.69336 0.2214,43.13167 35.53259,83.82412 79.00781,87.50586 37.04165,4.52002 76.36631,-16.30457 91.42032,-51.00321 15.74279,-33.10325 8.80351,-76.03312 -18.20352,-101.15694 -16.60913,-16.42156 -39.704,-26.38256 -63.08984,-26.03907 z"
         id="path9"
         inkscape:connector-curvature="0" /></g></g><g
     id="g11" /><g
     id="g13" /><g
     id="g15" /><g
     id="g17" /><g
     id="g19" /><g
     id="g21" /><g
     id="g23" /><g
     id="g25" /><g
     id="g27" /><g
     id="g29" /><g
     id="g31" /><g
     id="g33" /><g
     id="g35" /><g
     id="g37" /><g
     id="g39" /></svg>